<svg width="51" height="49" viewBox="0 0 51 49" fill="none" xmlns="http://www.w3.org/2000/svg">
<ellipse cx="25.4333" cy="24.5" rx="24.7221" ry="24.5" fill="#FCA759"/>
<path fill-rule="evenodd" clip-rule="evenodd" d="M18.0441 9.91666C18.0441 8.81209 17.1486 7.91666 16.0441 7.91666C14.9395 7.91666 14.0441 8.81209 14.0441 9.91666V11.3394C14.0441 12.444 14.9395 13.3394 16.0441 13.3394C17.1486 13.3394 18.0441 12.444 18.0441 11.3394V9.91666ZM18.0441 18.9868C18.0441 17.8822 17.1486 16.9868 16.0441 16.9868C14.9395 16.9868 14.0441 17.8822 14.0441 18.9868V22.8994C14.0441 24.004 14.9395 24.8994 16.0441 24.8994C17.1486 24.8994 18.0441 24.004 18.0441 22.8994V18.9868ZM16.0441 28.1911C17.1486 28.1911 18.0441 29.0865 18.0441 30.1911V39.0833C18.0441 40.1879 17.1486 41.0833 16.0441 41.0833C14.9395 41.0833 14.0441 40.1879 14.0441 39.0833V30.1911C14.0441 29.0865 14.9395 28.1911 16.0441 28.1911ZM14.2495 13.4736H36.1433L34.1679 20.8552L36.1433 27.8769L14.2495 28.0569V24.9962H19.1879V16.8943H14.2495V13.4736Z" fill="white"/>
<path d="M36.1433 13.4736L37.1093 13.7321C37.1897 13.4318 37.1258 13.1112 36.9366 12.8647C36.7473 12.6181 36.4541 12.4736 36.1433 12.4736V13.4736ZM14.2495 13.4736V12.4736C13.6972 12.4736 13.2495 12.9213 13.2495 13.4736H14.2495ZM34.1679 20.8552L33.2019 20.5967C33.1555 20.7703 33.1566 20.9531 33.2053 21.1261L34.1679 20.8552ZM36.1433 27.8769L36.1515 28.8768C36.4631 28.8743 36.7558 28.7266 36.9429 28.4774C37.13 28.2282 37.1903 27.906 37.1059 27.606L36.1433 27.8769ZM14.2495 28.0569H13.2495C13.2495 28.3235 13.3559 28.5791 13.5453 28.7669C13.7346 28.9547 13.991 29.0591 14.2577 29.0569L14.2495 28.0569ZM14.2495 24.9962V23.9962C13.6972 23.9962 13.2495 24.4439 13.2495 24.9962H14.2495ZM19.1879 24.9962V25.9962C19.7402 25.9962 20.1879 25.5485 20.1879 24.9962H19.1879ZM19.1879 16.8943H20.1879C20.1879 16.3421 19.7402 15.8943 19.1879 15.8943V16.8943ZM14.2495 16.8943H13.2495C13.2495 17.4466 13.6972 17.8943 14.2495 17.8943V16.8943ZM16.0441 8.91666C16.5964 8.91666 17.0441 9.36438 17.0441 9.91666H19.0441C19.0441 8.25981 17.7009 6.91666 16.0441 6.91666V8.91666ZM15.0441 9.91666C15.0441 9.36438 15.4918 8.91666 16.0441 8.91666V6.91666C14.3872 6.91666 13.0441 8.25981 13.0441 9.91666H15.0441ZM15.0441 11.3394V9.91666H13.0441V11.3394H15.0441ZM16.0441 12.3394C15.4918 12.3394 15.0441 11.8917 15.0441 11.3394H13.0441C13.0441 12.9963 14.3872 14.3394 16.0441 14.3394V12.3394ZM17.0441 11.3394C17.0441 11.8917 16.5964 12.3394 16.0441 12.3394V14.3394C17.7009 14.3394 19.0441 12.9963 19.0441 11.3394H17.0441ZM17.0441 9.91666V11.3394H19.0441V9.91666H17.0441ZM16.0441 17.9868C16.5964 17.9868 17.0441 18.4345 17.0441 18.9868H19.0441C19.0441 17.33 17.7009 15.9868 16.0441 15.9868V17.9868ZM15.0441 18.9868C15.0441 18.4345 15.4918 17.9868 16.0441 17.9868V15.9868C14.3872 15.9868 13.0441 17.33 13.0441 18.9868H15.0441ZM15.0441 22.8994V18.9868H13.0441V22.8994H15.0441ZM16.0441 23.8994C15.4918 23.8994 15.0441 23.4517 15.0441 22.8994H13.0441C13.0441 24.5563 14.3872 25.8994 16.0441 25.8994V23.8994ZM17.0441 22.8994C17.0441 23.4517 16.5964 23.8994 16.0441 23.8994V25.8994C17.7009 25.8994 19.0441 24.5563 19.0441 22.8994H17.0441ZM17.0441 18.9868V22.8994H19.0441V18.9868H17.0441ZM19.0441 30.1911C19.0441 28.5342 17.7009 27.1911 16.0441 27.1911V29.1911C16.5964 29.1911 17.0441 29.6388 17.0441 30.1911H19.0441ZM19.0441 39.0833V30.1911H17.0441V39.0833H19.0441ZM16.0441 42.0833C17.7009 42.0833 19.0441 40.7402 19.0441 39.0833H17.0441C17.0441 39.6356 16.5964 40.0833 16.0441 40.0833V42.0833ZM13.0441 39.0833C13.0441 40.7402 14.3872 42.0833 16.0441 42.0833V40.0833C15.4918 40.0833 15.0441 39.6356 15.0441 39.0833H13.0441ZM13.0441 30.1911V39.0833H15.0441V30.1911H13.0441ZM16.0441 27.1911C14.3872 27.1911 13.0441 28.5342 13.0441 30.1911H15.0441C15.0441 29.6388 15.4918 29.1911 16.0441 29.1911V27.1911ZM36.1433 12.4736H14.2495V14.4736H36.1433V12.4736ZM35.1339 21.1138L37.1093 13.7321L35.1773 13.215L33.2019 20.5967L35.1339 21.1138ZM37.1059 27.606L35.1306 20.5844L33.2053 21.1261L35.1807 28.1477L37.1059 27.606ZM14.2577 29.0569L36.1515 28.8768L36.1351 26.8769L14.2412 27.0569L14.2577 29.0569ZM13.2495 24.9962V28.0569H15.2495V24.9962H13.2495ZM19.1879 23.9962H14.2495V25.9962H19.1879V23.9962ZM18.1879 16.8943V24.9962H20.1879V16.8943H18.1879ZM14.2495 17.8943H19.1879V15.8943H14.2495V17.8943ZM13.2495 13.4736V16.8943H15.2495V13.4736H13.2495Z" fill="white"/>
</svg>
