<svg width="262" height="71" fill="none" xmlns="http://www.w3.org/2000/svg"><g filter="url(#a)"><rect x="4" width="254" height="63" rx="31.5" fill="url(#b)"/><rect x="4" width="254" height="63" rx="31.5" fill="#fff" fill-opacity=".1"/><g filter="url(#c)"><path d="M39.773 41.28c-.952 0-1.83-.15-2.632-.448a4.189 4.189 0 0 1-1.932-1.512c-.467-.71-.7-1.643-.7-2.8 0-1.512.513-2.67 1.54-3.472 1.026-.821 2.501-1.232 4.424-1.232h4.284v-.728c0-.933-.262-1.587-.784-1.96-.523-.392-1.447-.588-2.772-.588-.915 0-1.783.065-2.604.196-.803.112-1.606.299-2.408.56v-2.828a19.44 19.44 0 0 1 2.66-.616 18.035 18.035 0 0 1 2.968-.252c.504 0 .98.028 1.428.084.448.037.868.103 1.26.196h5.264l-.196 2.884h-1.708c.224.355.392.765.504 1.232.112.467.168.961.168 1.484V41h-3.78v-6.412h-4.06c-.803 0-1.438.14-1.904.42-.467.28-.7.784-.7 1.512 0 .69.205 1.167.616 1.428.41.261 1.101.392 2.072.392.354 0 .7-.019 1.036-.056.354-.037.653-.093.896-.168v2.772a8.398 8.398 0 0 1-1.316.28c-.504.075-1.046.112-1.624.112Zm17.726 0c-1.046 0-2.054-.075-3.024-.224-.952-.15-1.727-.345-2.324-.588v-3.052c.709.299 1.484.532 2.324.7.858.15 1.633.224 2.324.224 1.213 0 2.09-.093 2.632-.28.56-.187.84-.57.84-1.148 0-.448-.15-.793-.448-1.036-.28-.243-.719-.457-1.316-.644-.598-.205-1.363-.467-2.296-.784-1.363-.485-2.436-1.027-3.22-1.624-.766-.616-1.148-1.521-1.148-2.716 0-1.344.522-2.427 1.568-3.248 1.045-.84 2.622-1.26 4.732-1.26.877 0 1.754.065 2.632.196.877.13 1.596.29 2.156.476v3.024c-.616-.261-1.326-.448-2.128-.56a13.052 13.052 0 0 0-2.128-.196c-.878 0-1.643.103-2.296.308-.635.187-.952.579-.952 1.176 0 .373.158.672.476.896.336.224.802.43 1.4.616.616.187 1.344.43 2.184.728 1.045.355 1.885.728 2.52 1.12.653.392 1.12.868 1.4 1.428.298.56.448 1.26.448 2.1 0 1.475-.57 2.576-1.708 3.304-1.12.71-2.67 1.064-4.648 1.064Zm-1.29-17.472v-2.492h-2.184V18.74h4.732v2.492h5.992l-.14 2.576h-8.4ZM71.833 41v-9.296c0-1.008-.196-1.783-.588-2.324-.392-.56-1.176-.84-2.352-.84a9.29 9.29 0 0 0-1.96.224c-.691.13-1.307.299-1.848.504v-2.772c.56-.261 1.25-.476 2.072-.644a12.266 12.266 0 0 1 2.464-.252c2.128 0 3.658.457 4.592 1.372.933.896 1.4 2.296 1.4 4.2V41h-3.78Zm12.804.28c-.504 0-1.045-.037-1.624-.112a9.394 9.394 0 0 1-1.484-.308L77.273 30.5h3.668l3.332 8.092c1.4 0 2.408-.467 3.024-1.4.635-.952.952-2.361.952-4.228 0-1.12-.112-1.997-.336-2.632-.205-.635-.55-1.083-1.036-1.344-.485-.28-1.157-.42-2.016-.42h-1.148V25.88h1.68c2.222 0 3.846.588 4.872 1.764 1.046 1.157 1.568 2.93 1.568 5.32 0 1.96-.308 3.556-.924 4.788-.616 1.213-1.465 2.11-2.548 2.688-1.064.56-2.305.84-3.724.84Zm17.874 0c-3.024 0-5.339-.812-6.944-2.436-1.605-1.643-2.408-3.873-2.408-6.692 0-2.987.775-5.31 2.324-6.972 1.568-1.661 3.901-2.492 7-2.492 1.083 0 2.053.084 2.912.252.877.15 1.699.364 2.464.644v3.304c-1.587-.653-3.285-.98-5.096-.98-2.053 0-3.528.513-4.424 1.54-.896 1.027-1.344 2.595-1.344 4.704 0 3.957 1.941 5.936 5.824 5.936.877 0 1.745-.075 2.604-.224.859-.168 1.68-.41 2.464-.728v3.332c-.765.243-1.587.439-2.464.588-.859.15-1.829.224-2.912.224ZM109.1 41l6.888-18.032h4.144L126.992 41h-3.92l-1.708-4.34h-6.636l-1.68 4.34H109.1Zm6.188-7.252h5.516l-2.772-7.252-2.744 7.252ZM129.621 41V22.968h3.808l5.292 10.836 5.292-10.836h3.78V41h-3.78V29.268l-4.2 8.624h-2.184l-4.228-8.624V41h-3.78Zm21.356 0V22.968h8.456c1.419 0 2.576.27 3.472.812a5.079 5.079 0 0 1 2.044 2.212c.448.933.672 1.997.672 3.192 0 1.213-.261 2.287-.784 3.22a5.351 5.351 0 0 1-2.184 2.184c-.933.504-2.044.756-3.332.756h-4.564V41h-3.78Zm3.78-8.652h3.78c1.083 0 1.895-.28 2.436-.84.56-.579.84-1.353.84-2.324 0-1.045-.261-1.839-.784-2.38-.523-.56-1.307-.84-2.352-.84h-3.92v6.384ZM164.909 41l6.888-18.032h4.144L182.801 41h-3.92l-1.708-4.34h-6.636l-1.68 4.34h-3.948Zm6.188-7.252h5.516l-2.772-7.252-2.744 7.252ZM185.43 41V22.968h3.78V41h-3.78Zm15.653.28c-3.024 0-5.32-.793-6.888-2.38-1.568-1.587-2.352-3.79-2.352-6.608 0-2.987.793-5.33 2.38-7.028 1.586-1.717 3.948-2.576 7.084-2.576 1.082 0 2.062.065 2.94.196.877.112 1.708.299 2.492.56v3.248a11.853 11.853 0 0 0-2.492-.588 17.668 17.668 0 0 0-2.66-.196c-2.147 0-3.668.532-4.564 1.596-.896 1.045-1.344 2.641-1.344 4.788 0 3.864 1.82 5.796 5.46 5.796.634 0 1.25-.047 1.848-.14a10.23 10.23 0 0 0 1.624-.42v-4.2h-4.2V30.92h7.392v8.82c-.616.392-1.475.747-2.576 1.064-1.102.317-2.483.476-4.144.476Zm9.339-.28V22.968h3.276l8.54 12.012V22.968h3.78V41h-3.276l-8.54-12.012V41h-3.78Z" fill="#fff"/></g></g><defs><filter id="a" x="0" y="0" width="262" height="71" filterUnits="userSpaceOnUse" color-interpolation-filters="sRGB"><feFlood flood-opacity="0" result="BackgroundImageFix"/><feColorMatrix in="SourceAlpha" values="0 0 0 0 0 0 0 0 0 0 0 0 0 0 0 0 0 0 127 0" result="hardAlpha"/><feOffset dy="4"/><feGaussianBlur stdDeviation="2"/><feComposite in2="hardAlpha" operator="out"/><feColorMatrix values="0 0 0 0 0 0 0 0 0 0 0 0 0 0 0 0 0 0 0.25 0"/><feBlend in2="BackgroundImageFix" result="effect1_dropShadow_1363_2706"/><feBlend in="SourceGraphic" in2="effect1_dropShadow_1363_2706" result="shape"/></filter><filter id="c" x="30.509" y="18.74" width="199.509" height="30.54" filterUnits="userSpaceOnUse" color-interpolation-filters="sRGB"><feFlood flood-opacity="0" result="BackgroundImageFix"/><feColorMatrix in="SourceAlpha" values="0 0 0 0 0 0 0 0 0 0 0 0 0 0 0 0 0 0 127 0" result="hardAlpha"/><feOffset dy="4"/><feGaussianBlur stdDeviation="2"/><feComposite in2="hardAlpha" operator="out"/><feColorMatrix values="0 0 0 0 0 0 0 0 0 0 0 0 0 0 0 0 0 0 0.25 0"/><feBlend in2="BackgroundImageFix" result="effect1_dropShadow_1363_2706"/><feBlend in="SourceGraphic" in2="effect1_dropShadow_1363_2706" result="shape"/></filter><linearGradient id="b" x1="4" y1="31.5" x2="258" y2="31.5" gradientUnits="userSpaceOnUse"><stop stop-color="#9747FF"/><stop offset="1" stop-color="#5585FF"/></linearGradient></defs></svg>