<svg width="18" height="18" viewBox="0 0 18 18" fill="none" xmlns="http://www.w3.org/2000/svg">
<path d="M9 0C4.02932 0 0 4.02932 0 9C0 13.9707 4.02932 18 9 18C13.9707 18 18 13.9707 18 9C18 4.02932 13.9707 0 9 0ZM6.39019 13.049C6.39019 13.2826 6.18579 13.4735 5.93612 13.4735H4.73853C4.4885 13.4735 4.2841 13.2826 4.2841 13.049V9.40662C4.2841 9.17338 4.4885 8.98211 4.73853 8.98211H5.93612C6.18579 8.98211 6.39019 9.17338 6.39019 9.40662V13.049ZM13.4166 10.7046C13.3469 10.777 13.2946 10.8644 13.2637 10.9601C13.2328 11.0558 13.2242 11.1573 13.2385 11.2568C13.2721 11.4894 13.2465 11.8044 12.964 12.0577C12.8793 12.1358 12.8158 12.2341 12.7795 12.3435C12.7431 12.4529 12.7352 12.5696 12.7563 12.6829C12.8293 13.1209 12.6052 13.7415 10.6619 13.6498L8.13238 13.5896C8.11047 13.5896 8.08894 13.5874 8.06704 13.5849C7.85862 13.5589 6.76907 13.4024 6.85156 12.9184L6.84718 9.53109C6.84716 9.44201 6.86478 9.3538 6.89901 9.27157L8.32765 6.47451C8.34921 6.43223 8.36047 6.38545 8.36051 6.338V5.02652C8.35953 4.90972 8.38939 4.79472 8.44707 4.69314C8.50475 4.59156 8.5882 4.507 8.68901 4.44799C8.89926 4.3279 9.19309 4.26548 9.51868 4.50493C10.1585 4.97944 10.1739 5.23494 10.1739 5.23494C10.1739 5.23494 10.4633 6.0887 10.3414 6.8658C10.3261 6.96204 10.3319 7.06045 10.3584 7.15423C10.3849 7.24801 10.4314 7.33493 10.4947 7.40898C10.5581 7.48304 10.6367 7.54247 10.7252 7.58317C10.8138 7.62387 10.9101 7.64487 11.0075 7.64473H12.4632C12.4867 7.64466 12.5102 7.64588 12.5336 7.64838C12.7559 7.67283 13.767 7.84657 13.4115 8.98102C13.3799 9.08167 13.3734 9.18851 13.3925 9.29225C13.4116 9.39599 13.4557 9.49351 13.521 9.57635C13.7155 9.81981 13.8783 10.2283 13.4166 10.7046Z" fill="#4080FF"/>
<path d="M13.4114 8.98098C13.767 7.84654 12.7544 7.6728 12.5336 7.64834C12.5102 7.64584 12.4867 7.64462 12.4632 7.64469H11.0075C10.9103 7.64464 10.8142 7.62356 10.726 7.58287C10.6377 7.54219 10.5592 7.48287 10.4961 7.409C10.4329 7.33514 10.3864 7.24846 10.3599 7.15494C10.3334 7.06142 10.3274 6.96326 10.3425 6.86722C10.4644 6.09012 10.1749 5.23637 10.1749 5.23637C10.1749 5.23637 10.1596 4.97758 9.51973 4.50635C9.19414 4.26618 8.89922 4.32932 8.69007 4.44941C8.58926 4.50842 8.5058 4.59299 8.44812 4.69457C8.39044 4.79614 8.36059 4.91114 8.36156 5.02795V6.33942C8.36152 6.38688 8.35026 6.43366 8.32871 6.47594L6.90007 9.27299C6.86583 9.35523 6.84822 9.44343 6.84824 9.53251L6.85262 12.9198C6.77013 13.4023 7.85967 13.5604 8.06809 13.5863C8.08999 13.5888 8.11153 13.5903 8.13343 13.591L10.6629 13.6513C12.6062 13.7414 12.8314 13.1205 12.7574 12.6844C12.7362 12.5711 12.7442 12.4543 12.7805 12.3449C12.8168 12.2356 12.8803 12.1372 12.965 12.0591C13.2476 11.8072 13.2731 11.4908 13.2395 11.2583C13.2249 11.1586 13.2332 11.0569 13.2639 10.9609C13.2946 10.8649 13.3468 10.7773 13.4166 10.7046C13.8776 10.2282 13.7148 9.81977 13.5217 9.57631C13.4562 9.49354 13.412 9.39605 13.3928 9.29231C13.3736 9.18856 13.38 9.08169 13.4114 8.98098ZM5.93608 8.98208H4.73849C4.48846 8.98208 4.28406 9.17334 4.28406 9.40658V13.049C4.28406 13.2826 4.48846 13.4735 4.73849 13.4735H5.93608C6.18575 13.4735 6.39015 13.2826 6.39015 13.049V9.40658C6.39015 9.17334 6.18575 8.98208 5.93608 8.98208Z" fill="white"/>
</svg>
