<svg width="39" height="39" viewBox="0 0 39 39" fill="none" xmlns="http://www.w3.org/2000/svg">
<path d="M16.9094 0.0483126C7.58508 0.0483126 0 7.63339 0 16.9577C0 26.2821 7.58508 33.8671 16.9094 33.8671C19.7599 33.8671 22.562 33.1908 24.9293 31.8863C25.1189 32.1145 25.3292 32.3248 25.5574 32.5144L30.3886 37.3456C30.8347 37.8476 31.3787 38.2531 31.9872 38.5372C32.5957 38.8214 33.2559 38.9781 33.9271 38.9979C34.5984 39.0176 35.2666 38.9 35.8907 38.6521C36.5149 38.4043 37.0818 38.0315 37.5567 37.5567C38.0315 37.0818 38.4043 36.5149 38.6521 35.8907C38.9 35.2666 39.0176 34.5984 38.9979 33.9271C38.9781 33.2558 38.8214 32.5957 38.5372 31.9872C38.2531 31.3787 37.8476 30.8347 37.3457 30.3886L32.5144 25.5574C32.279 25.3219 32.02 25.1115 31.7414 24.9293C33.0458 22.562 33.8671 19.8082 33.8671 16.9094C33.8671 7.58508 26.2821 0 16.9577 0L16.9094 0.0483126ZM16.9094 4.87957C23.6249 4.87957 28.9876 10.2423 28.9876 16.9577C28.9876 20.1464 27.8281 23.0934 25.7989 25.2675C25.7506 25.3158 25.7023 25.3641 25.654 25.4124C25.4258 25.6021 25.2156 25.8123 25.0259 26.0405C22.9002 27.973 20.0014 29.0842 16.8611 29.0842C10.1456 29.0842 4.78295 23.7215 4.78295 17.006C4.78295 10.2906 10.1456 4.92789 16.8611 4.92789L16.9094 4.87957Z" fill="white"/>
</svg>
