<svg width="198" height="73" fill="none" xmlns="http://www.w3.org/2000/svg"><g filter="url(#a)"><rect x="11" y="2.127" width="179" height="62.746" rx="31.373" fill="url(#b)"/></g><path d="M36.612 43.978c-.952 0-1.829-.15-2.632-.448a4.189 4.189 0 0 1-1.931-1.512c-.467-.71-.7-1.642-.7-2.8 0-1.512.513-2.67 1.54-3.472 1.026-.821 2.5-1.232 4.423-1.232h4.285v-.728c0-.933-.262-1.586-.785-1.96-.522-.392-1.446-.588-2.771-.588-.915 0-1.783.066-2.604.196-.803.112-1.606.299-2.408.56v-2.828a19.454 19.454 0 0 1 2.66-.616 18.035 18.035 0 0 1 2.968-.252c.504 0 .98.028 1.428.084.447.038.867.103 1.26.196h5.264l-.197 2.884h-1.707c.224.355.392.766.504 1.232.111.467.167.962.167 1.484v9.52h-3.78v-6.412h-4.06c-.802 0-1.437.14-1.904.42-.466.28-.7.784-.7 1.512 0 .69.206 1.167.616 1.428.411.262 1.102.392 2.072.392.355 0 .7-.018 1.037-.056.354-.037.653-.093.896-.168v2.772a8.384 8.384 0 0 1-1.316.28c-.505.075-1.046.112-1.625.112zm21.366 0c-1.045 0-1.988-.158-2.828-.476a8.213 8.213 0 0 1-2.267-1.288l-.169 1.484h-3.471v-15.12h3.78V39.47c.41.448.951.822 1.623 1.12.691.299 1.382.448 2.072.448.896 0 1.568-.214 2.016-.644.467-.448.7-1.185.7-2.212v-9.604h3.78v9.828c0 1.755-.466 3.127-1.4 4.116-.933.97-2.212 1.456-3.836 1.456zm-1.955-17.472v-4.452h3.08v1.876h6.972l-.14 2.576h-9.912zm10.528 17.192v-9.38c0-1.83.56-3.285 1.68-4.368 1.139-1.101 2.959-1.652 5.46-1.652s4.312.55 5.432 1.652c1.12 1.083 1.68 2.539 1.68 4.368v9.38h-3.78v-9.66c0-.933-.299-1.633-.896-2.1-.579-.466-1.39-.7-2.436-.7-2.24 0-3.36.934-3.36 2.8v2.716a5.11 5.11 0 0 1 1.176-.644 4.114 4.114 0 0 1 1.456-.252h1.82l.112 2.996H72.88c-.523 0-.99.075-1.4.224-.41.13-.793.327-1.148.588v4.032h-3.78zm22.678.28c-1.045 0-2.053-.074-3.024-.224-.952-.15-1.727-.345-2.324-.588v-3.052c.71.299 1.484.532 2.324.7.859.15 1.633.224 2.324.224 1.213 0 2.09-.093 2.632-.28.56-.186.84-.57.84-1.148 0-.448-.15-.793-.448-1.036-.28-.242-.719-.457-1.316-.644a778.38 778.38 0 0 0-2.296-.784c-1.363-.485-2.436-1.026-3.22-1.624-.765-.616-1.148-1.521-1.148-2.716 0-1.344.523-2.426 1.568-3.248 1.045-.84 2.623-1.26 4.732-1.26.877 0 1.755.066 2.632.196.877.13 1.596.29 2.156.476v3.024c-.616-.261-1.325-.448-2.128-.56a13.063 13.063 0 0 0-2.128-.196c-.877 0-1.643.103-2.296.308-.635.187-.952.579-.952 1.176 0 .374.159.672.476.896.336.224.803.43 1.4.616.616.187 1.344.43 2.184.728 1.045.355 1.885.728 2.52 1.12.653.392 1.12.868 1.4 1.428.299.56.448 1.26.448 2.1 0 1.475-.57 2.576-1.708 3.304-1.12.71-2.67 1.064-4.648 1.064zm14.754 0c-1.213 0-2.296-.261-3.248-.784-.952-.522-1.708-1.334-2.268-2.436-.541-1.12-.812-2.557-.812-4.312 0-2.67.467-4.694 1.4-6.076.952-1.381 2.231-2.072 3.836-2.072.803 0 1.428.13 1.876.392a3.5 3.5 0 0 1 1.12 1.036c.373-.43.887-.774 1.54-1.036a5.597 5.597 0 0 1 2.044-.392c1.325 0 2.296.402 2.912 1.204.635.803.952 1.858.952 3.164v11.032h-3.78V33.254c0-.653-.093-1.148-.28-1.484-.168-.354-.504-.532-1.008-.532-.336 0-.644.112-.924.336-.261.206-.448.523-.56.952h-1.82c-.187-.43-.383-.746-.588-.952-.205-.224-.504-.336-.896-.336-.877 0-1.475.486-1.792 1.456-.299.952-.448 2.203-.448 3.752 0 1.699.299 2.894.896 3.584.597.672 1.437 1.008 2.52 1.008.355 0 .7-.018 1.036-.056.355-.037.653-.093.896-.168v2.772c-.336.13-.709.224-1.12.28a8.433 8.433 0 0 1-1.484.112zm18.373 0c-1.25 0-2.417-.112-3.5-.336-1.082-.242-1.997-.522-2.744-.84V34.85h6.412l.168 2.772h-2.996v3.052c.355.112.775.206 1.26.28.504.056.98.084 1.428.084 1.531 0 2.604-.364 3.22-1.092.616-.728.924-1.978.924-3.752 0-1.27-.168-2.258-.504-2.968a2.813 2.813 0 0 0-1.596-1.54c-.728-.298-1.726-.448-2.996-.448-.821 0-1.68.066-2.576.196-.877.112-1.726.299-2.548.56v-2.828c.84-.28 1.802-.494 2.884-.644a23.166 23.166 0 0 1 3.164-.224c2.726 0 4.695.682 5.908 2.044 1.232 1.344 1.848 3.295 1.848 5.852 0 2.502-.616 4.424-1.848 5.768-1.213 1.344-3.182 2.016-5.908 2.016zm15.63 0c-1.624 0-2.902-.485-3.836-1.456-.933-.99-1.4-2.361-1.4-4.116v-9.828h3.78v9.604c0 1.027.224 1.764.672 2.212.467.43 1.148.644 2.044.644.71 0 1.4-.15 2.072-.448.672-.298 1.214-.672 1.624-1.12V28.578h3.78v15.12h-3.472l-.168-1.484a8.213 8.213 0 0 1-2.268 1.288c-.84.318-1.782.476-2.828.476zm17.309 0c-1.624 0-2.903-.485-3.836-1.456-.933-.99-1.4-2.361-1.4-4.116v-9.828h3.78v9.604c0 1.027.224 1.764.672 2.212.467.43 1.148.644 2.044.644.709 0 1.4-.15 2.072-.448.672-.298 1.213-.672 1.624-1.12V28.578h3.78v15.12h-3.472l-.168-1.484a8.213 8.213 0 0 1-2.268 1.288c-.84.318-1.783.476-2.828.476zm-3.496-17.472.196-2.576h8.96v-2.268h3.08v4.844h-12.236zm7.616-6.188v-2.156h-1.764v-2.38h4.144v2.156h4.312l-.14 2.38h-6.552z" fill="#FE2C55" fill-opacity=".8"/><path d="M34.612 40.788c-.952 0-1.829-.15-2.632-.448a4.189 4.189 0 0 1-1.931-1.512c-.467-.71-.7-1.643-.7-2.8 0-1.512.513-2.67 1.54-3.472 1.026-.821 2.5-1.232 4.424-1.232h4.283v-.728c0-.933-.26-1.587-.783-1.96-.523-.392-1.447-.588-2.773-.588-.914 0-1.782.065-2.603.196-.803.112-1.606.299-2.408.56v-2.828a19.44 19.44 0 0 1 2.66-.616 18.035 18.035 0 0 1 2.968-.252c.504 0 .98.028 1.428.084.447.037.867.102 1.26.196h5.264l-.197 2.884h-1.707c.224.355.392.765.504 1.232.111.466.167.961.167 1.484v9.52h-3.78v-6.412h-4.06c-.802 0-1.437.14-1.904.42-.466.28-.7.784-.7 1.512 0 .69.206 1.166.616 1.428.411.261 1.102.392 2.072.392.355 0 .7-.019 1.037-.056.354-.038.653-.093.896-.168v2.772a8.395 8.395 0 0 1-1.316.28c-.505.075-1.046.112-1.625.112zm21.366 0c-1.045 0-1.988-.159-2.828-.476a8.216 8.216 0 0 1-2.267-1.288l-.169 1.484h-3.471v-15.12h3.78V36.28c.41.448.951.821 1.623 1.12.691.299 1.382.448 2.072.448.896 0 1.568-.215 2.016-.644.467-.448.7-1.185.7-2.212v-9.604h3.78v9.828c0 1.755-.466 3.127-1.4 4.116-.933.97-2.212 1.456-3.836 1.456zm-1.955-17.472v-4.452h3.08v1.876h6.972l-.14 2.576h-9.912zm10.528 17.192v-9.38c0-1.83.56-3.285 1.68-4.368 1.139-1.102 2.959-1.652 5.46-1.652s4.312.55 5.432 1.652c1.12 1.082 1.68 2.538 1.68 4.368v9.38h-3.78v-9.66c0-.933-.299-1.633-.896-2.1-.579-.467-1.39-.7-2.436-.7-2.24 0-3.36.933-3.36 2.8v2.716a5.11 5.11 0 0 1 1.176-.644 4.114 4.114 0 0 1 1.456-.252h1.82l.112 2.996H70.88c-.523 0-.99.075-1.4.224-.41.13-.793.327-1.148.588v4.032h-3.78zm22.678.28c-1.045 0-2.053-.075-3.024-.224-.952-.15-1.727-.346-2.324-.588v-3.052c.71.298 1.484.532 2.324.7.859.15 1.633.224 2.324.224 1.213 0 2.09-.093 2.632-.28.56-.187.84-.57.84-1.148 0-.448-.15-.794-.448-1.036-.28-.243-.719-.458-1.316-.644-.597-.206-1.363-.467-2.296-.784-1.363-.486-2.436-1.027-3.22-1.624-.765-.616-1.148-1.521-1.148-2.716 0-1.344.523-2.427 1.568-3.248 1.045-.84 2.623-1.26 4.732-1.26.877 0 1.755.065 2.632.196.877.13 1.596.29 2.156.476v3.024c-.616-.261-1.325-.448-2.128-.56a13.052 13.052 0 0 0-2.128-.196c-.877 0-1.643.103-2.296.308-.635.186-.952.578-.952 1.176 0 .373.159.672.476.896.336.224.803.43 1.4.616.616.186 1.344.43 2.184.728 1.045.355 1.885.728 2.52 1.12.653.392 1.12.868 1.4 1.428.299.56.448 1.26.448 2.1 0 1.474-.57 2.576-1.708 3.304-1.12.71-2.67 1.064-4.648 1.064zm14.754 0c-1.213 0-2.296-.261-3.248-.784-.952-.523-1.708-1.335-2.268-2.436-.541-1.12-.812-2.557-.812-4.312 0-2.67.467-4.695 1.4-6.076.952-1.381 2.23-2.072 3.836-2.072.803 0 1.428.13 1.876.392.448.261.821.607 1.12 1.036.373-.43.887-.775 1.54-1.036a5.597 5.597 0 0 1 2.044-.392c1.325 0 2.296.401 2.912 1.204.635.802.952 1.857.952 3.164v11.032h-3.78V30.064c0-.654-.093-1.148-.28-1.484-.168-.355-.504-.532-1.008-.532-.336 0-.644.112-.924.336-.261.205-.448.523-.56.952h-1.82c-.187-.43-.383-.747-.588-.952-.205-.224-.504-.336-.896-.336-.877 0-1.475.485-1.792 1.456-.299.952-.448 2.202-.448 3.752 0 1.699.299 2.893.896 3.584.597.672 1.437 1.008 2.52 1.008.355 0 .7-.019 1.036-.056.355-.038.653-.093.896-.168v2.772c-.336.13-.709.224-1.12.28a8.433 8.433 0 0 1-1.484.112zm18.373 0c-1.25 0-2.417-.112-3.5-.336-1.082-.243-1.997-.523-2.744-.84V31.66h6.412l.168 2.772h-2.996v3.052c.355.112.775.205 1.26.28.504.056.98.084 1.428.084 1.531 0 2.604-.364 3.22-1.092.616-.728.924-1.979.924-3.752 0-1.27-.168-2.259-.504-2.968a2.813 2.813 0 0 0-1.596-1.54c-.728-.299-1.726-.448-2.996-.448-.821 0-1.68.065-2.576.196-.877.112-1.726.299-2.548.56v-2.828c.84-.28 1.802-.495 2.884-.644a23.166 23.166 0 0 1 3.164-.224c2.726 0 4.695.681 5.908 2.044 1.232 1.344 1.848 3.294 1.848 5.852 0 2.501-.616 4.424-1.848 5.768-1.213 1.344-3.182 2.016-5.908 2.016zm15.63 0c-1.624 0-2.902-.485-3.836-1.456-.933-.99-1.4-2.361-1.4-4.116v-9.828h3.78v9.604c0 1.027.224 1.764.672 2.212.467.43 1.148.644 2.044.644.71 0 1.4-.15 2.072-.448.672-.299 1.214-.672 1.624-1.12V25.388h3.78v15.12h-3.472l-.168-1.484a8.216 8.216 0 0 1-2.268 1.288c-.84.317-1.782.476-2.828.476zm17.309 0c-1.624 0-2.903-.485-3.836-1.456-.933-.99-1.4-2.361-1.4-4.116v-9.828h3.78v9.604c0 1.027.224 1.764.672 2.212.467.43 1.148.644 2.044.644.709 0 1.4-.15 2.072-.448.672-.299 1.213-.672 1.624-1.12V25.388h3.78v15.12h-3.472l-.168-1.484a8.216 8.216 0 0 1-2.268 1.288c-.84.317-1.783.476-2.828.476zm-3.496-17.472.196-2.576h8.96v-2.268h3.08v4.844h-12.236zm7.616-6.188v-2.156h-1.764v-2.38h4.144v2.156h4.312l-.14 2.38h-6.552z" fill="#25F4EE" fill-opacity=".8"/><path d="M35.612 41.851c-.952 0-1.829-.149-2.632-.448a4.189 4.189 0 0 1-1.931-1.512c-.467-.709-.7-1.642-.7-2.8 0-1.512.513-2.669 1.54-3.472 1.026-.821 2.5-1.232 4.424-1.232h4.283v-.728c0-.933-.26-1.586-.783-1.96-.523-.392-1.447-.588-2.773-.588-.914 0-1.782.066-2.603.196-.803.112-1.606.299-2.408.56V27.04a19.44 19.44 0 0 1 2.66-.616 18.035 18.035 0 0 1 2.968-.252c.504 0 .98.028 1.428.084.447.038.867.103 1.26.196h5.264l-.197 2.884h-1.707c.224.355.392.766.504 1.232.111.467.167.962.167 1.484v9.52h-3.78V35.16h-4.06c-.802 0-1.437.14-1.904.42-.466.28-.7.784-.7 1.512 0 .691.206 1.167.616 1.428.411.262 1.102.392 2.072.392.355 0 .7-.018 1.037-.056.354-.037.653-.093.896-.168v2.772a8.395 8.395 0 0 1-1.316.28c-.505.075-1.046.112-1.625.112zm21.366 0c-1.045 0-1.988-.158-2.828-.476a8.216 8.216 0 0 1-2.267-1.288l-.169 1.484h-3.471v-15.12h3.78v10.892c.41.448.951.822 1.623 1.12.691.299 1.382.448 2.072.448.896 0 1.568-.214 2.016-.644.467-.448.7-1.185.7-2.212v-9.604h3.78v9.828c0 1.755-.466 3.127-1.4 4.116-.933.971-2.212 1.456-3.836 1.456zM55.023 24.38v-4.452h3.08v1.876h6.972l-.14 2.576h-9.912zm10.528 17.192v-9.38c0-1.829.56-3.285 1.68-4.368 1.139-1.101 2.959-1.652 5.46-1.652s4.312.551 5.432 1.652c1.12 1.083 1.68 2.539 1.68 4.368v9.38h-3.78v-9.66c0-.933-.299-1.633-.896-2.1-.579-.466-1.39-.7-2.436-.7-2.24 0-3.36.934-3.36 2.8v2.716a5.11 5.11 0 0 1 1.176-.644 4.114 4.114 0 0 1 1.456-.252h1.82l.112 2.996H71.88c-.523 0-.99.075-1.4.224-.41.131-.793.327-1.148.588v4.032h-3.78zm22.678.28c-1.045 0-2.053-.074-3.024-.224-.952-.149-1.727-.345-2.324-.588v-3.052c.71.299 1.484.532 2.324.7.859.15 1.633.224 2.324.224 1.213 0 2.09-.093 2.632-.28.56-.186.84-.569.84-1.148 0-.448-.15-.793-.448-1.036-.28-.242-.719-.457-1.316-.644-.597-.205-1.363-.466-2.296-.784-1.363-.485-2.436-1.026-3.22-1.624-.765-.616-1.148-1.521-1.148-2.716 0-1.344.523-2.426 1.568-3.248 1.045-.84 2.623-1.26 4.732-1.26.877 0 1.755.066 2.632.196.877.131 1.596.29 2.156.476v3.024c-.616-.261-1.325-.448-2.128-.56a13.052 13.052 0 0 0-2.128-.196c-.877 0-1.643.103-2.296.308-.635.187-.952.579-.952 1.176 0 .374.159.672.476.896.336.224.803.43 1.4.616.616.187 1.344.43 2.184.728 1.045.355 1.885.728 2.52 1.12.653.392 1.12.868 1.4 1.428.299.56.448 1.26.448 2.1 0 1.475-.57 2.576-1.708 3.304-1.12.71-2.67 1.064-4.648 1.064zm14.754 0c-1.213 0-2.296-.261-3.248-.784-.952-.522-1.708-1.334-2.268-2.436-.541-1.12-.812-2.557-.812-4.312 0-2.669.467-4.694 1.4-6.076.952-1.381 2.231-2.072 3.836-2.072.803 0 1.428.131 1.876.392.448.262.821.607 1.12 1.036.373-.429.887-.774 1.54-1.036a5.597 5.597 0 0 1 2.044-.392c1.325 0 2.296.402 2.912 1.204.635.803.952 1.858.952 3.164v11.032h-3.78V31.127c0-.653-.093-1.148-.28-1.484-.168-.354-.504-.532-1.008-.532-.336 0-.644.112-.924.336-.261.206-.448.523-.56.952h-1.82c-.187-.429-.383-.746-.588-.952-.205-.224-.504-.336-.896-.336-.877 0-1.475.486-1.792 1.456-.299.952-.448 2.203-.448 3.752 0 1.699.299 2.894.896 3.584.597.672 1.437 1.008 2.52 1.008.355 0 .7-.018 1.036-.056.355-.037.653-.093.896-.168v2.772c-.336.131-.709.224-1.12.28a8.433 8.433 0 0 1-1.484.112zm18.373 0c-1.25 0-2.417-.112-3.5-.336-1.082-.242-1.997-.522-2.744-.84v-7.952h6.412l.168 2.772h-2.996v3.052c.355.112.775.206 1.26.28.504.056.98.084 1.428.084 1.531 0 2.604-.364 3.22-1.092.616-.728.924-1.978.924-3.752 0-1.269-.168-2.258-.504-2.968a2.813 2.813 0 0 0-1.596-1.54c-.728-.298-1.726-.448-2.996-.448-.821 0-1.68.066-2.576.196-.877.112-1.726.299-2.548.56V27.04c.84-.28 1.802-.494 2.884-.644a23.166 23.166 0 0 1 3.164-.224c2.726 0 4.695.682 5.908 2.044 1.232 1.344 1.848 3.295 1.848 5.852 0 2.502-.616 4.424-1.848 5.768-1.213 1.344-3.182 2.016-5.908 2.016zm15.63 0c-1.624 0-2.902-.485-3.836-1.456-.933-.989-1.4-2.361-1.4-4.116v-9.828h3.78v9.604c0 1.027.224 1.764.672 2.212.467.43 1.148.644 2.044.644.71 0 1.4-.149 2.072-.448.672-.298 1.214-.672 1.624-1.12V26.451h3.78v15.12h-3.472l-.168-1.484a8.216 8.216 0 0 1-2.268 1.288c-.84.318-1.782.476-2.828.476zm17.309 0c-1.624 0-2.903-.485-3.836-1.456-.933-.989-1.4-2.361-1.4-4.116v-9.828h3.78v9.604c0 1.027.224 1.764.672 2.212.467.43 1.148.644 2.044.644.709 0 1.4-.149 2.072-.448.672-.298 1.213-.672 1.624-1.12V26.451h3.78v15.12h-3.472l-.168-1.484a8.216 8.216 0 0 1-2.268 1.288c-.84.318-1.783.476-2.828.476zm-3.496-17.472.196-2.576h8.96v-2.268h3.08v4.844h-12.236zm7.616-6.188v-2.156h-1.764v-2.38h4.144v2.156h4.312l-.14 2.38h-6.552z" fill="#fff"/><defs><linearGradient id="b" x1="100" y1="4.786" x2="100.576" y2="64.872" gradientUnits="userSpaceOnUse"><stop stop-color="#501432"/><stop offset="1" stop-color="#302B2D"/></linearGradient><filter id="a" x="11" y="2.127" width="187" height="70.746" filterUnits="userSpaceOnUse" color-interpolation-filters="sRGB"><feFlood flood-opacity="0" result="BackgroundImageFix"/><feColorMatrix in="SourceAlpha" values="0 0 0 0 0 0 0 0 0 0 0 0 0 0 0 0 0 0 127 0" result="hardAlpha"/><feOffset dx="4" dy="4"/><feGaussianBlur stdDeviation="2"/><feComposite in2="hardAlpha" operator="out"/><feColorMatrix values="0 0 0 0 0 0 0 0 0 0 0 0 0 0 0 0 0 0 0.25 0"/><feBlend in2="BackgroundImageFix" result="effect1_dropShadow_642_1888"/><feBlend in="SourceGraphic" in2="effect1_dropShadow_642_1888" result="shape"/></filter></defs></svg>